<svg width="100" height="100" viewBox="0 0 100 100" fill="none" xmlns="http://www.w3.org/2000/svg">
  <!-- Modern Geometric Cloud -->
  <path d="M25 65C17.8 65 12 59.2 12 52C12 45.8 16.3 40.7 22.1 39.4C22.8 27.2 33 17.5 45.5 17.5C54.8 17.5 62.9 23.2 66.5 31.5C68.8 30.2 71.5 29.5 74.4 29.5C81.6 29.5 87.5 35.4 87.5 42.6C87.5 43.1 87.5 43.6 87.4 44.1C91.7 46 94.6 50.3 94.6 55.1C94.6 62.1 88.9 67.8 81.9 67.8L25 67.8V65Z" fill="#00B4DB"/>
  
  <!-- Integrated Lightning Bolt (White) -->
  <path d="M52 40L42 55H50L45 70L60 50H52L57 40H52Z" fill="white" stroke="#00B4DB" stroke-width="1" stroke-linejoin="round"/>
</svg>
